<svg xmlns="http://www.w3.org/2000/svg" width="256" height="256" viewBox="0 0 100 100"><rect width="100" height="100" rx="50" fill="#090e38"></rect><path fill="#f31e5e" d="M17.47 53.94L17.47 53.94Q17.14 54.21 16.63 54.37Q16.12 54.54 15.47 54.54L15.47 54.54Q14.60 54.54 14.02 54.32Q13.44 54.10 13.25 53.56L13.25 53.56Q12.39 51.05 11.78 49.39Q11.17 47.73 10.82 46.52L10.82 46.52L10.72 46.52Q10.63 48.19 10.58 49.58Q10.53 50.97 10.49 52.30Q10.45 53.62 10.39 54.97Q10.34 56.32 10.26 57.94L10.26 57.94Q9.96 58.05 9.46 58.14Q8.96 58.23 8.42 58.23L8.42 58.23Q7.37 58.23 6.77 57.87Q6.18 57.51 6.18 56.61L6.18 56.61Q6.18 56.10 6.22 55.20Q6.26 54.29 6.33 53.12Q6.40 51.94 6.49 50.59Q6.58 49.24 6.68 47.85Q6.77 46.46 6.85 45.10Q6.94 43.74 7.02 42.58L7.02 42.58Q7.23 42.28 7.89 41.91Q8.56 41.55 9.74 41.55L9.74 41.55Q11.01 41.55 11.74 41.95Q12.47 42.36 12.85 43.28L12.85 43.28Q13.15 44.01 13.47 44.91Q13.79 45.81 14.12 46.76Q14.44 47.70 14.75 48.64Q15.06 49.57 15.33 50.35L15.33 50.35L15.47 50.35Q16.22 47.97 16.98 45.75Q17.74 43.52 18.30 42.01L18.30 42.01Q18.68 41.82 19.26 41.68Q19.84 41.55 20.54 41.55L20.54 41.55Q21.76 41.55 22.49 41.90Q23.22 42.25 23.35 42.93L23.35 42.93Q23.46 43.47 23.59 44.57Q23.73 45.68 23.86 47.11Q24.00 48.54 24.13 50.12Q24.27 51.70 24.38 53.17Q24.48 54.64 24.57 55.86Q24.65 57.07 24.67 57.75L24.67 57.75Q24.27 57.99 23.81 58.11Q23.35 58.23 22.65 58.23L22.65 58.23Q21.76 58.23 21.12 57.91Q20.49 57.59 20.44 56.64L20.44 56.64Q20.25 53.51 20.18 50.90Q20.11 48.30 20.03 46.63L20.03 46.63L19.90 46.63Q19.57 47.76 18.96 49.49Q18.36 51.21 17.47 53.94ZM40.79 51.51L40.79 51.51Q40.79 53.10 40.31 54.39Q39.82 55.67 38.92 56.56Q38.01 57.45 36.74 57.94Q35.47 58.42 33.91 58.42L33.91 58.42Q32.34 58.42 31.06 57.95Q29.78 57.48 28.87 56.59Q27.97 55.70 27.48 54.41Q27.00 53.13 27.00 51.51L27.00 51.51Q27.00 49.95 27.50 48.66Q28.00 47.38 28.90 46.49Q29.80 45.60 31.09 45.11Q32.37 44.63 33.91 44.63L33.91 44.63Q35.45 44.63 36.72 45.11Q37.98 45.60 38.89 46.50Q39.79 47.41 40.29 48.68Q40.79 49.95 40.79 51.51ZM33.91 47.87L33.91 47.87Q32.64 47.87 31.94 48.81Q31.24 49.76 31.24 51.51L31.24 51.51Q31.24 53.32 31.92 54.25Q32.61 55.18 33.91 55.18L33.91 55.18Q35.20 55.18 35.89 54.24Q36.58 53.29 36.58 51.51L36.58 51.51Q36.58 49.78 35.88 48.83Q35.18 47.87 33.91 47.87ZM51.65 49.73L51.65 49.73Q51.65 48.78 51.08 48.33Q50.51 47.87 49.57 47.87L49.57 47.87Q48.92 47.87 48.38 48.03Q47.84 48.19 47.38 48.43L47.38 48.43L47.38 57.99Q47.11 58.07 46.63 58.14Q46.14 58.21 45.55 58.21L45.55 58.21Q44.33 58.21 43.79 57.82Q43.25 57.42 43.25 56.29L43.25 56.29L43.25 47.95Q43.25 47.25 43.55 46.81Q43.84 46.38 44.38 46.00L44.38 46.00Q45.25 45.38 46.61 45.00Q47.98 44.63 49.62 44.63L49.62 44.63Q52.56 44.63 54.17 45.92Q55.78 47.22 55.78 49.62L55.78 49.62L55.78 57.99Q55.48 58.07 54.99 58.14Q54.51 58.21 53.91 58.21L53.91 58.21Q52.70 58.21 52.17 57.82Q51.65 57.42 51.65 56.29L51.65 56.29L51.65 49.73ZM67.23 49.73L67.23 49.73Q67.23 48.78 66.66 48.33Q66.09 47.87 65.15 47.87L65.15 47.87Q64.50 47.87 63.96 48.03Q63.42 48.19 62.96 48.43L62.96 48.43L62.96 57.99Q62.69 58.07 62.20 58.14Q61.72 58.21 61.12 58.21L61.12 58.21Q59.91 58.21 59.37 57.82Q58.83 57.42 58.83 56.29L58.83 56.29L58.83 47.95Q58.83 47.25 59.13 46.81Q59.42 46.38 59.96 46.00L59.96 46.00Q60.83 45.38 62.19 45.00Q63.55 44.63 65.20 44.63L65.20 44.63Q68.14 44.63 69.75 45.92Q71.36 47.22 71.36 49.62L71.36 49.62L71.36 57.99Q71.06 58.07 70.57 58.14Q70.09 58.21 69.49 58.21L69.49 58.21Q68.28 58.21 67.75 57.82Q67.23 57.42 67.23 56.29L67.23 56.29L67.23 49.73ZM86.94 55.32L86.94 55.32Q86.94 56.59 85.83 57.26L85.83 57.26Q84.97 57.80 83.70 58.11Q82.43 58.42 80.89 58.42L80.89 58.42Q79.43 58.42 78.24 58.11Q77.05 57.80 76.20 57.13Q75.35 56.45 74.88 55.43Q74.41 54.40 74.41 52.94L74.41 52.94L74.41 45.09Q74.70 45.00 75.19 44.92Q75.68 44.84 76.27 44.84L76.27 44.84Q77.49 44.84 78.01 45.25Q78.54 45.65 78.54 46.79L78.54 46.79L78.54 52.92Q78.54 54.13 79.16 54.66Q79.78 55.18 80.92 55.18L80.92 55.18Q81.62 55.18 82.09 55.06Q82.56 54.94 82.81 54.81L82.81 54.81L82.81 45.09Q83.08 45.00 83.56 44.92Q84.05 44.84 84.64 44.84L84.64 44.84Q85.86 44.84 86.40 45.25Q86.94 45.65 86.94 46.79L86.94 46.79L86.94 55.32ZM89.02 56.02L89.02 56.02Q89.02 54.99 89.65 54.29Q90.28 53.59 91.42 53.59L91.42 53.59Q92.53 53.59 93.17 54.29Q93.82 54.99 93.82 56.02L93.82 56.02Q93.82 57.05 93.17 57.75Q92.53 58.45 91.42 58.45L91.42 58.45Q90.28 58.45 89.65 57.75Q89.02 57.05 89.02 56.02Z"></path></svg>